<mxfile host="app.diagrams.net" modified="2020-11-16T23:18:18.303Z" agent="5.0 (Windows NT 10.0; Win64; x64) AppleWebKit/537.36 (KHTML, like Gecko) Chrome/86.0.4240.193 Safari/537.36" etag="gqckMn-a8rcllKl8L7ul" version="13.9.9" type="github">
  <diagram id="U_ZXWRW4sukO2hpqxynR" name="Page-1">
    <mxGraphModel dx="1422" dy="705" grid="1" gridSize="10" guides="1" tooltips="1" connect="1" arrows="1" fold="1" page="1" pageScale="1" pageWidth="827" pageHeight="1169" math="0" shadow="0" extFonts="Permanent Marker^https://fonts.googleapis.com/css?family=Permanent+Marker">
      <root>
        <mxCell id="0" />
        <mxCell id="1" parent="0" />
        <mxCell id="uLn3R6imp52X0CxI3bnw-29" value="" style="rounded=0;whiteSpace=wrap;html=1;rotation=-180;direction=south;fontColor=#808080;fillColor=#B3B3B3;" parent="1" vertex="1">
          <mxGeometry x="320" y="470" width="10" height="290" as="geometry" />
        </mxCell>
        <mxCell id="uLn3R6imp52X0CxI3bnw-22" value="" style="rounded=0;whiteSpace=wrap;html=1;fontColor=#808080;fillColor=#B3B3B3;" parent="1" vertex="1">
          <mxGeometry x="40" y="470" width="280" height="10" as="geometry" />
        </mxCell>
        <mxCell id="uLn3R6imp52X0CxI3bnw-36" value="" style="rounded=0;whiteSpace=wrap;html=1;fontColor=#808080;fillColor=#000000;rotation=90;" parent="1" vertex="1">
          <mxGeometry x="218.36" y="395" width="120" height="10" as="geometry" />
        </mxCell>
        <mxCell id="uLn3R6imp52X0CxI3bnw-32" value="" style="rounded=0;whiteSpace=wrap;html=1;fontColor=#808080;fillColor=#000000;" parent="1" vertex="1">
          <mxGeometry x="341.64" y="275" width="120" height="10" as="geometry" />
        </mxCell>
        <mxCell id="uLn3R6imp52X0CxI3bnw-10" value="" style="group" parent="1" vertex="1" connectable="0">
          <mxGeometry x="170" y="346.7201948466054" width="180" height="149.73980515339463" as="geometry" />
        </mxCell>
        <mxCell id="uLn3R6imp52X0CxI3bnw-6" value="" style="rounded=0;whiteSpace=wrap;html=1;fillColor=#000000;" parent="uLn3R6imp52X0CxI3bnw-10" vertex="1">
          <mxGeometry x="55" y="12.279805153394591" width="30" height="5" as="geometry" />
        </mxCell>
        <mxCell id="uLn3R6imp52X0CxI3bnw-5" value="" style="rounded=0;whiteSpace=wrap;html=1;fillColor=#000000;" parent="uLn3R6imp52X0CxI3bnw-10" vertex="1">
          <mxGeometry x="55" y="90.27980515339459" width="30" height="5" as="geometry" />
        </mxCell>
        <mxCell id="uLn3R6imp52X0CxI3bnw-2" value="" style="rounded=0;whiteSpace=wrap;html=1;rotation=-45;fillColor=#00CCCC;strokeColor=none;" parent="uLn3R6imp52X0CxI3bnw-10" vertex="1">
          <mxGeometry x="51.46000000000001" y="26.81980515339461" width="80" height="10" as="geometry" />
        </mxCell>
        <mxCell id="uLn3R6imp52X0CxI3bnw-3" value="" style="rounded=0;whiteSpace=wrap;html=1;rotation=45;fillColor=#00CCCC;strokeColor=none;" parent="uLn3R6imp52X0CxI3bnw-10" vertex="1">
          <mxGeometry x="51.46000000000001" y="69.73980515339457" width="80" height="10" as="geometry" />
        </mxCell>
        <mxCell id="uLn3R6imp52X0CxI3bnw-4" value="" style="rounded=0;whiteSpace=wrap;html=1;rotation=0;fillColor=#00CCCC;strokeColor=none;" parent="uLn3R6imp52X0CxI3bnw-10" vertex="1">
          <mxGeometry y="48.27980515339459" width="90" height="10" as="geometry" />
        </mxCell>
        <mxCell id="uLn3R6imp52X0CxI3bnw-1" value="" style="ellipse;whiteSpace=wrap;html=1;aspect=fixed;fillColor=#00CCCC;strokeColor=none;" parent="uLn3R6imp52X0CxI3bnw-10" vertex="1">
          <mxGeometry x="30" y="13.279805153394591" width="80" height="80" as="geometry" />
        </mxCell>
        <mxCell id="uLn3R6imp52X0CxI3bnw-7" value="" style="ellipse;whiteSpace=wrap;html=1;aspect=fixed;fillColor=#000000;" parent="uLn3R6imp52X0CxI3bnw-10" vertex="1">
          <mxGeometry x="110" y="2.279805153394591" width="10" height="10" as="geometry" />
        </mxCell>
        <mxCell id="uLn3R6imp52X0CxI3bnw-8" value="" style="ellipse;whiteSpace=wrap;html=1;aspect=fixed;fillColor=#000000;" parent="uLn3R6imp52X0CxI3bnw-10" vertex="1">
          <mxGeometry x="110" y="93.27980515339459" width="10" height="10" as="geometry" />
        </mxCell>
        <mxCell id="uLn3R6imp52X0CxI3bnw-9" value="" style="ellipse;whiteSpace=wrap;html=1;aspect=fixed;fillColor=#000000;" parent="uLn3R6imp52X0CxI3bnw-10" vertex="1">
          <mxGeometry y="48.27980515339459" width="10" height="10" as="geometry" />
        </mxCell>
        <mxCell id="F38KNGHBxGYKoGh8dX-P-2" value="" style="ellipse;whiteSpace=wrap;html=1;aspect=fixed;fillColor=#4D4D4D;" parent="uLn3R6imp52X0CxI3bnw-10" vertex="1">
          <mxGeometry x="55.00000000000003" y="38.27980515339459" width="30" height="30" as="geometry" />
        </mxCell>
        <mxCell id="NUU76ChghGNvIE_H2SSa-13" value="" style="group" vertex="1" connectable="0" parent="uLn3R6imp52X0CxI3bnw-10">
          <mxGeometry x="100" y="79.73980515339463" width="80" height="70" as="geometry" />
        </mxCell>
        <mxCell id="NUU76ChghGNvIE_H2SSa-7" value="" style="endArrow=none;html=1;fontColor=#000000;curved=1;endFill=0;strokeWidth=2;strokeColor=#3333FF;" edge="1" parent="NUU76ChghGNvIE_H2SSa-13">
          <mxGeometry width="50" height="50" relative="1" as="geometry">
            <mxPoint x="-30" y="20" as="sourcePoint" />
            <mxPoint x="20" y="-30" as="targetPoint" />
            <Array as="points">
              <mxPoint x="10" y="10" />
            </Array>
          </mxGeometry>
        </mxCell>
        <mxCell id="NUU76ChghGNvIE_H2SSa-8" value="" style="endArrow=none;html=1;fontColor=#000000;curved=1;endFill=0;strokeWidth=2;strokeColor=#3333FF;" edge="1" parent="NUU76ChghGNvIE_H2SSa-13">
          <mxGeometry width="50" height="50" relative="1" as="geometry">
            <mxPoint x="-30" y="40" as="sourcePoint" />
            <mxPoint x="40" y="-30" as="targetPoint" />
            <Array as="points">
              <mxPoint x="30" y="30" />
            </Array>
          </mxGeometry>
        </mxCell>
        <mxCell id="NUU76ChghGNvIE_H2SSa-9" value="" style="endArrow=none;html=1;fontColor=#000000;curved=1;endFill=0;strokeWidth=2;strokeColor=#3333FF;" edge="1" parent="NUU76ChghGNvIE_H2SSa-13">
          <mxGeometry width="50" height="50" relative="1" as="geometry">
            <mxPoint x="-30" y="60" as="sourcePoint" />
            <mxPoint x="60" y="-30" as="targetPoint" />
            <Array as="points">
              <mxPoint x="50" y="50" />
            </Array>
          </mxGeometry>
        </mxCell>
        <mxCell id="NUU76ChghGNvIE_H2SSa-10" value="" style="endArrow=none;html=1;fontColor=#000000;curved=1;endFill=0;strokeWidth=2;strokeColor=#3333FF;" edge="1" parent="NUU76ChghGNvIE_H2SSa-13">
          <mxGeometry width="50" height="50" relative="1" as="geometry">
            <mxPoint x="-30" as="sourcePoint" />
            <mxPoint y="-30" as="targetPoint" />
            <Array as="points">
              <mxPoint />
            </Array>
          </mxGeometry>
        </mxCell>
        <mxCell id="NUU76ChghGNvIE_H2SSa-12" value="" style="endArrow=none;html=1;fontColor=#000000;curved=1;endFill=0;strokeWidth=2;strokeColor=#3333FF;" edge="1" parent="NUU76ChghGNvIE_H2SSa-13">
          <mxGeometry width="50" height="50" relative="1" as="geometry">
            <mxPoint x="-30" y="90" as="sourcePoint" />
            <mxPoint x="90" y="-30" as="targetPoint" />
            <Array as="points">
              <mxPoint x="80" y="70" />
            </Array>
          </mxGeometry>
        </mxCell>
        <mxCell id="uLn3R6imp52X0CxI3bnw-21" value="" style="rounded=0;whiteSpace=wrap;html=1;fontColor=#808080;fillColor=#B3B3B3;" parent="1" vertex="1">
          <mxGeometry x="40" y="320" width="280" height="10" as="geometry" />
        </mxCell>
        <mxCell id="uLn3R6imp52X0CxI3bnw-23" value="" style="rounded=0;whiteSpace=wrap;html=1;fontColor=#808080;fillColor=#B3B3B3;" parent="1" vertex="1">
          <mxGeometry x="480" y="470" width="280" height="10" as="geometry" />
        </mxCell>
        <mxCell id="uLn3R6imp52X0CxI3bnw-24" value="" style="rounded=0;whiteSpace=wrap;html=1;fontColor=#808080;fillColor=#B3B3B3;" parent="1" vertex="1">
          <mxGeometry x="480" y="320" width="280" height="10" as="geometry" />
        </mxCell>
        <mxCell id="uLn3R6imp52X0CxI3bnw-27" value="" style="rounded=0;whiteSpace=wrap;html=1;rotation=-180;direction=south;fontColor=#808080;fillColor=#B3B3B3;" parent="1" vertex="1">
          <mxGeometry x="320" y="40" width="10" height="290" as="geometry" />
        </mxCell>
        <mxCell id="uLn3R6imp52X0CxI3bnw-28" value="" style="rounded=0;whiteSpace=wrap;html=1;rotation=-180;direction=south;fontColor=#808080;fillColor=#B3B3B3;" parent="1" vertex="1">
          <mxGeometry x="470" y="40" width="10" height="290" as="geometry" />
        </mxCell>
        <mxCell id="uLn3R6imp52X0CxI3bnw-30" value="" style="rounded=0;whiteSpace=wrap;html=1;rotation=-180;direction=south;fontColor=#808080;fillColor=#B3B3B3;" parent="1" vertex="1">
          <mxGeometry x="470" y="470" width="10" height="290" as="geometry" />
        </mxCell>
        <mxCell id="uLn3R6imp52X0CxI3bnw-11" value="" style="group;rotation=-90;fillColor=none;" parent="1" vertex="1" connectable="0">
          <mxGeometry x="336.72" y="550.0001948466054" width="145.49999999999997" height="154.99980515339462" as="geometry" />
        </mxCell>
        <mxCell id="uLn3R6imp52X0CxI3bnw-12" value="" style="rounded=0;whiteSpace=wrap;html=1;fillColor=#000000;rotation=-90;" parent="uLn3R6imp52X0CxI3bnw-11" vertex="1">
          <mxGeometry x="8" y="42" width="30" height="5" as="geometry" />
        </mxCell>
        <mxCell id="uLn3R6imp52X0CxI3bnw-13" value="" style="rounded=0;whiteSpace=wrap;html=1;fillColor=#000000;rotation=-90;" parent="uLn3R6imp52X0CxI3bnw-11" vertex="1">
          <mxGeometry x="86" y="42" width="30" height="5" as="geometry" />
        </mxCell>
        <mxCell id="uLn3R6imp52X0CxI3bnw-14" value="" style="rounded=0;whiteSpace=wrap;html=1;rotation=-135;fillColor=#00CCCC;strokeColor=none;" parent="uLn3R6imp52X0CxI3bnw-11" vertex="1">
          <mxGeometry y="19" width="80" height="10" as="geometry" />
        </mxCell>
        <mxCell id="uLn3R6imp52X0CxI3bnw-15" value="" style="rounded=0;whiteSpace=wrap;html=1;rotation=-45;fillColor=#00CCCC;strokeColor=none;" parent="uLn3R6imp52X0CxI3bnw-11" vertex="1">
          <mxGeometry x="43" y="19" width="80" height="10" as="geometry" />
        </mxCell>
        <mxCell id="uLn3R6imp52X0CxI3bnw-16" value="" style="rounded=0;whiteSpace=wrap;html=1;rotation=-90;fillColor=#00CCCC;strokeColor=none;" parent="uLn3R6imp52X0CxI3bnw-11" vertex="1">
          <mxGeometry x="17" y="65" width="90" height="10" as="geometry" />
        </mxCell>
        <mxCell id="uLn3R6imp52X0CxI3bnw-17" value="" style="ellipse;whiteSpace=wrap;html=1;aspect=fixed;fillColor=#00CCCC;strokeColor=none;rotation=-90;" parent="uLn3R6imp52X0CxI3bnw-11" vertex="1">
          <mxGeometry x="22" y="5" width="80" height="80" as="geometry" />
        </mxCell>
        <mxCell id="uLn3R6imp52X0CxI3bnw-18" value="" style="ellipse;whiteSpace=wrap;html=1;aspect=fixed;fillColor=#000000;rotation=-90;" parent="uLn3R6imp52X0CxI3bnw-11" vertex="1">
          <mxGeometry x="11" y="-5" width="10" height="10" as="geometry" />
        </mxCell>
        <mxCell id="uLn3R6imp52X0CxI3bnw-19" value="" style="ellipse;whiteSpace=wrap;html=1;aspect=fixed;fillColor=#000000;rotation=-90;" parent="uLn3R6imp52X0CxI3bnw-11" vertex="1">
          <mxGeometry x="102" y="-5" width="10" height="10" as="geometry" />
        </mxCell>
        <mxCell id="uLn3R6imp52X0CxI3bnw-20" value="" style="ellipse;whiteSpace=wrap;html=1;aspect=fixed;fillColor=#000000;rotation=-90;" parent="uLn3R6imp52X0CxI3bnw-11" vertex="1">
          <mxGeometry x="57" y="105" width="10" height="10" as="geometry" />
        </mxCell>
        <mxCell id="F38KNGHBxGYKoGh8dX-P-1" value="" style="ellipse;whiteSpace=wrap;html=1;aspect=fixed;fillColor=#4D4D4D;" parent="uLn3R6imp52X0CxI3bnw-11" vertex="1">
          <mxGeometry x="47" y="29.999805153394618" width="30" height="30" as="geometry" />
        </mxCell>
        <mxCell id="uLn3R6imp52X0CxI3bnw-34" value="" style="rounded=0;whiteSpace=wrap;html=1;fontColor=#808080;fillColor=#000000;rotation=90;" parent="1" vertex="1">
          <mxGeometry x="460" y="395" width="120" height="10" as="geometry" />
        </mxCell>
        <mxCell id="uLn3R6imp52X0CxI3bnw-33" value="" style="rounded=0;whiteSpace=wrap;html=1;fontColor=#808080;fillColor=#000000;" parent="1" vertex="1">
          <mxGeometry x="339" y="516" width="120" height="10" as="geometry" />
        </mxCell>
        <mxCell id="NUU76ChghGNvIE_H2SSa-1" value="" style="endArrow=classic;html=1;" edge="1" parent="1">
          <mxGeometry width="50" height="50" relative="1" as="geometry">
            <mxPoint x="398.5" y="540" as="sourcePoint" />
            <mxPoint x="398.5" y="490" as="targetPoint" />
          </mxGeometry>
        </mxCell>
      </root>
    </mxGraphModel>
  </diagram>
</mxfile>
